<svg width="100%" height="100%" viewBox="0 0 1040 450" version="1.1" xmlns="http://www.w3.org/2000/svg" xmlns:xlink="http://www.w3.org/1999/xlink" xml:space="preserve" xmlns:serif="http://www.serif.com/" style="fill-rule:evenodd;clip-rule:evenodd;stroke-linejoin:round;stroke-miterlimit:2;">
  <g>
    <g class="logo--company-name">
      <path d="M16.7,430.4c-3.4,-3.5 -5.1,-8.4 -5.1,-14.9l0,-25.8l6.5,0l0,25.5c0,9.7 4.2,14.6 12.8,14.6c4.1,0 7.3,-1.2 9.5,-3.6c2.2,-2.4 3.3,-6.1 3.3,-11l0,-25.5l6.3,0l0,25.8c0,6.5 -1.7,11.5 -5.1,14.9c-3.4,3.4 -8.1,5.1 -14.1,5.1c-6,0 -10.8,-1.6 -14.1,-5.1Z" style="fill:white;fill-rule:nonzero;"></path>
      <path d="M116.4,389.8l0,45.3l-5.3,0l-27.2,-33.8l0,33.8l-6.5,0l0,-45.3l5.3,0l27.2,33.8l0,-33.8l6.5,0Z" style="fill:white;fill-rule:nonzero;"></path>
      <rect x="144.3" y="389.8" width="6.5" height="45.3" style="fill:white;fill-rule:nonzero;"></rect>
      <path d="M186.7,432.6c-3.7,-2 -6.6,-4.8 -8.6,-8.3c-2.1,-3.5 -3.1,-7.5 -3.1,-11.8c0,-4.3 1,-8.3 3.1,-11.8c2.1,-3.5 5,-6.3 8.6,-8.3c3.7,-2 7.8,-3 12.4,-3c4.5,0 8.6,1 12.3,3c3.7,2 6.5,4.8 8.6,8.3c2.1,3.5 3.1,7.5 3.1,11.9c0,4.4 -1,8.4 -3.1,11.9c-2.1,3.5 -4.9,6.3 -8.6,8.3c-3.7,2 -7.8,3 -12.3,3c-4.7,-0.2 -8.8,-1.2 -12.4,-3.2Zm21.3,-5c2.7,-1.5 4.8,-3.6 6.3,-6.2c1.5,-2.7 2.3,-5.6 2.3,-8.9c0,-3.3 -0.8,-6.2 -2.3,-8.9c-1.5,-2.7 -3.6,-4.7 -6.3,-6.2c-2.7,-1.5 -5.6,-2.3 -9,-2.3c-3.3,0 -6.3,0.8 -9,2.3c-2.7,1.5 -4.8,3.6 -6.3,6.2c-1.5,2.7 -2.3,5.6 -2.3,8.9c0,3.3 0.8,6.2 2.3,8.9c1.5,2.7 3.7,4.7 6.3,6.2c2.6,1.5 5.7,2.3 9,2.3c3.3,0 6.3,-0.8 9,-2.3Z" style="fill:white;fill-rule:nonzero;"></path>
      <path d="M286.2,389.8l0,45.3l-5.3,0l-27.2,-33.8l0,33.8l-6.5,0l0,-45.3l5.3,0l27.2,33.8l0,-33.8l6.5,0Z" style="fill:white;fill-rule:nonzero;"></path>
      <path d="M349,434c-3.2,-1.1 -5.7,-2.4 -7.5,-4.1l2.4,-5.1c1.7,1.5 3.9,2.8 6.6,3.8c2.7,1 5.5,1.5 8.3,1.5c3.8,0 6.6,-0.6 8.4,-1.9c1.8,-1.3 2.8,-3 2.8,-5.1c0,-1.5 -0.5,-2.8 -1.5,-3.8c-1,-1 -2.3,-1.7 -3.8,-2.2c-1.5,-0.5 -3.6,-1.1 -6.3,-1.7c-3.4,-0.8 -6.2,-1.6 -8.3,-2.5c-2.1,-0.8 -3.9,-2.1 -5.4,-3.8c-1.5,-1.7 -2.2,-4 -2.2,-6.9c0,-2.4 0.6,-4.6 1.9,-6.5c1.3,-1.9 3.2,-3.5 5.8,-4.7c2.6,-1.2 5.8,-1.7 9.6,-1.7c2.7,0 5.3,0.3 7.9,1c2.6,0.7 4.8,1.7 6.7,3l-2.1,5.2c-1.9,-1.2 -3.9,-2.1 -6.1,-2.8c-2.2,-0.6 -4.3,-0.9 -6.3,-0.9c-3.7,0 -6.4,0.7 -8.3,2c-1.8,1.3 -2.8,3.1 -2.8,5.2c0,1.5 0.5,2.8 1.5,3.8c1,1 2.3,1.7 3.8,2.3c1.5,0.5 3.6,1.1 6.2,1.7c3.4,0.8 6.2,1.6 8.2,2.5c2.1,0.8 3.8,2.1 5.3,3.8c1.5,1.7 2.2,3.9 2.2,6.8c0,2.4 -0.6,4.5 -1.9,6.5c-1.3,2 -3.3,3.5 -5.9,4.7c-2.6,1.1 -5.9,1.7 -9.7,1.7c-3,-0.2 -6.3,-0.7 -9.5,-1.8Z" style="fill:white;fill-rule:nonzero;"></path>
      <path d="M446.8,439.2c-1.5,1.7 -3.2,3 -5.1,3.9c-1.9,0.9 -4,1.4 -6.3,1.4c-2.8,0 -5.5,-0.7 -8,-2c-2.5,-1.4 -5.3,-3.7 -8.5,-7c-4.3,-0.2 -8.1,-1.4 -11.5,-3.4c-3.4,-2.1 -6.1,-4.8 -8,-8.3c-1.9,-3.4 -2.9,-7.2 -2.9,-11.4c0,-4.4 1,-8.3 3.1,-11.8c2.1,-3.5 5,-6.3 8.6,-8.3c3.7,-2 7.8,-3 12.4,-3c4.5,0 8.6,1 12.3,3c3.7,2 6.5,4.8 8.6,8.3c2.1,3.5 3.1,7.5 3.1,11.9c0,3.7 -0.7,7.1 -2.2,10.2c-1.5,3.1 -3.6,5.7 -6.3,7.8c-2.7,2.1 -5.8,3.6 -9.3,4.4c1.5,1.6 3,2.8 4.4,3.5c1.4,0.7 2.8,1.1 4.3,1.1c3.2,0 6,-1.3 8.3,-3.9l3,3.6Zm-41.6,-17.9c1.5,2.7 3.7,4.7 6.3,6.2c2.7,1.5 5.7,2.3 9,2.3c3.3,0 6.3,-0.8 8.9,-2.3c2.7,-1.5 4.8,-3.6 6.3,-6.2c1.5,-2.7 2.3,-5.6 2.3,-8.9c0,-3.3 -0.8,-6.2 -2.3,-8.9c-1.5,-2.7 -3.6,-4.7 -6.3,-6.2c-2.7,-1.5 -5.6,-2.3 -8.9,-2.3c-3.3,0 -6.3,0.8 -9,2.3c-2.7,1.5 -4.8,3.6 -6.3,6.2c-1.5,2.7 -2.3,5.6 -2.3,8.9c0,3.3 0.7,6.3 2.3,8.9Z" style="fill:white;fill-rule:nonzero;"></path>
      <path d="M473.4,430.4c-3.4,-3.5 -5.1,-8.4 -5.1,-14.9l0,-25.8l6.5,0l0,25.5c0,9.7 4.2,14.6 12.8,14.6c4.1,0 7.3,-1.2 9.5,-3.6c2.2,-2.4 3.3,-6.1 3.3,-11l0,-25.5l6.3,0l0,25.8c0,6.5 -1.7,11.5 -5.1,14.9c-3.4,3.4 -8.1,5.1 -14.1,5.1c-6,0.1 -10.8,-1.6 -14.1,-5.1Z" style="fill:white;fill-rule:nonzero;"></path>
      <path d="M562.1,423.8l-24.1,0l-5,11.3l-6.7,0l20.5,-45.3l6.4,0l20.6,45.3l-6.8,0l-4.9,-11.3Zm-2.3,-5.2l-9.8,-22.2l-9.8,22.2l19.6,0Z" style="fill:white;fill-rule:nonzero;"></path>
      <path d="M625.1,435.1l-9.8,-13.9c-1.2,0.1 -2.2,0.1 -2.8,0.1l-11.2,0l0,13.8l-6.5,0l0,-45.3l17.7,0c5.9,0 10.5,1.4 13.9,4.2c3.4,2.8 5.1,6.7 5.1,11.6c0,3.5 -0.9,6.5 -2.6,8.9c-1.7,2.5 -4.2,4.2 -7.4,5.4l10.7,15.2l-7.1,0Zm-3.4,-21.9c2.2,-1.8 3.2,-4.3 3.2,-7.6c0,-3.3 -1.1,-5.8 -3.2,-7.5c-2.1,-1.7 -5.3,-2.6 -9.4,-2.6l-11,0l0,20.4l11,0c4.1,-0.1 7.2,-1 9.4,-2.7Z" style="fill:white;fill-rule:nonzero;"></path>
      <path d="M689,429.5l0,5.6l-32.9,0l0,-45.3l32,0l0,5.6l-25.5,0l0,13.9l22.7,0l0,5.5l-22.7,0l0,14.6l26.4,0.1Z" style="fill:white;fill-rule:nonzero;"></path>
      <path d="M784.4,389.8l0,45.3l-6.5,0l0,-20.2l-26,0l0,20.2l-6.5,0l0,-45.3l6.5,0l0,19.5l26,0l0,-19.5l6.5,0Z" style="fill:white;fill-rule:nonzero;"></path>
      <path d="M820.3,432.6c-3.7,-2 -6.5,-4.8 -8.6,-8.3c-2.1,-3.5 -3.1,-7.5 -3.1,-11.8c0,-4.3 1,-8.3 3.1,-11.8c2.1,-3.5 5,-6.3 8.6,-8.3c3.6,-2 7.8,-3 12.4,-3c4.5,0 8.6,1 12.3,3c3.7,2 6.5,4.8 8.6,8.3c2.1,3.5 3.1,7.5 3.1,11.9c0,4.4 -1,8.4 -3.1,11.9c-2.1,3.5 -4.9,6.3 -8.6,8.3c-3.7,2 -7.8,3 -12.3,3c-4.6,-0.2 -8.7,-1.2 -12.4,-3.2Zm21.3,-5c2.7,-1.5 4.8,-3.6 6.3,-6.2c1.5,-2.7 2.3,-5.6 2.3,-8.9c0,-3.3 -0.8,-6.2 -2.3,-8.9c-1.5,-2.7 -3.6,-4.7 -6.3,-6.2c-2.7,-1.5 -5.6,-2.3 -9,-2.3c-3.4,0 -6.3,0.8 -9,2.3c-2.7,1.5 -4.8,3.6 -6.3,6.2c-1.5,2.7 -2.3,5.6 -2.3,8.9c0,3.3 0.8,6.2 2.3,8.9c1.5,2.7 3.7,4.7 6.3,6.2c2.6,1.5 5.7,2.3 9,2.3c3.3,0 6.4,-0.8 9,-2.3Z" style="fill:white;fill-rule:nonzero;"></path>
      <path d="M885.5,430.4c-3.4,-3.5 -5.1,-8.4 -5.1,-14.9l0,-25.8l6.5,0l0,25.5c0,9.7 4.2,14.6 12.8,14.6c4.1,0 7.3,-1.2 9.5,-3.6c2.2,-2.4 3.3,-6.1 3.3,-11l0,-25.5l6.3,0l0,25.8c0,6.5 -1.7,11.5 -5.1,14.9c-3.4,3.4 -8.1,5.1 -14.1,5.1c-6,0.1 -10.7,-1.6 -14.1,-5.1Z" style="fill:white;fill-rule:nonzero;"></path>
      <path d="M949.6,434c-3.2,-1.1 -5.7,-2.4 -7.5,-4.1l2.4,-5.1c1.7,1.5 3.9,2.8 6.6,3.8c2.7,1 5.5,1.5 8.3,1.5c3.8,0 6.6,-0.6 8.4,-1.9c1.8,-1.3 2.8,-3 2.8,-5.1c0,-1.5 -0.5,-2.8 -1.5,-3.8c-1,-1 -2.3,-1.7 -3.8,-2.2c-1.5,-0.5 -3.6,-1.1 -6.3,-1.7c-3.4,-0.8 -6.2,-1.6 -8.3,-2.5c-2.1,-0.8 -3.9,-2.1 -5.4,-3.8c-1.5,-1.7 -2.2,-4 -2.2,-6.9c0,-2.4 0.6,-4.6 1.9,-6.5c1.3,-1.9 3.2,-3.5 5.8,-4.7c2.6,-1.2 5.8,-1.7 9.6,-1.7c2.7,0 5.3,0.3 7.9,1c2.6,0.7 4.8,1.7 6.7,3l-2.1,5.2c-1.9,-1.2 -3.9,-2.1 -6.1,-2.8c-2.2,-0.7 -4.3,-0.9 -6.3,-0.9c-3.7,0 -6.4,0.7 -8.3,2c-1.8,1.3 -2.8,3.1 -2.8,5.2c0,1.5 0.5,2.8 1.5,3.8c1,1 2.3,1.7 3.8,2.3c1.5,0.5 3.6,1.1 6.2,1.7c3.4,0.8 6.2,1.6 8.2,2.5c2.1,0.8 3.8,2.1 5.4,3.8c1.5,1.7 2.2,3.9 2.2,6.8c0,2.4 -0.7,4.5 -2,6.5c-1.3,2 -3.3,3.5 -5.9,4.7c-2.6,1.1 -5.9,1.7 -9.7,1.7c-3,-0.2 -6.3,-0.7 -9.5,-1.8Z" style="fill:white;fill-rule:nonzero;"></path>
      <path d="M1033.6,429.5l0,5.6l-32.9,0l0,-45.3l32,0l0,5.6l-25.5,0l0,13.9l22.7,0l0,5.5l-22.7,0l0,14.6l26.4,0.1Z" style="fill:white;fill-rule:nonzero;"></path>
    </g>
    <path d="M235.8,11.6l34.4,0c-3.8,4.1 -6.5,8.6 -8.2,13.4c-2.1,4.5 -3.8,9.9 -5.1,16.4l-0.5,0.5l0,2.1c-1,6.2 -1.5,12.3 -1.5,18.5l0,139.2c0,19.9 -1.5,35.4 -4.6,46.7c-2.4,11 -6.9,20.9 -13.4,29.8c-18.2,24.3 -49.1,36.5 -92.9,36.5c-42.5,0 -75.5,-8.7 -99.1,-26.2c-5.8,-4.4 -10.8,-9.1 -14.9,-13.9c-3.8,-4.8 -6.7,-10.4 -8.7,-16.9c-2.4,-6.8 -4.1,-14.9 -5.1,-24.1c-1,-9.3 -1.5,-20.5 -1.5,-33.9l0,-141.8c0,-13 -0.7,-22.9 -2.1,-29.8c-1.4,-6.2 -3.4,-11.6 -6.2,-16.4l83.7,0c-2.7,4.8 -4.8,10.3 -6.2,16.4c-1.4,6.9 -2.1,17.3 -2.1,31.3l0,123.8c0,13 0.2,24.1 0.5,33.4c0.3,9.2 0.8,17.3 1.5,24.1c0.7,6.9 1.8,12.9 3.3,18.2c1.5,5.3 3.5,10 5.9,14.1c5.8,11.3 15.2,20.2 28.2,26.7c12.3,6.5 26.3,9.8 42.1,9.8c11.6,0 22.6,-1.7 32.9,-5.1c10.6,-3.4 19.5,-8.2 26.7,-14.4c8.2,-7.5 14.7,-16.8 19.5,-27.7c1.4,-4.1 2.7,-8 4.1,-11.8c1,-4.1 1.9,-8.6 2.6,-13.4c0.7,-4.8 1.2,-10.1 1.5,-15.9c0.3,-5.8 0.5,-12.8 0.5,-21.1l0,-137.6c0,-6.2 -0.7,-12.3 -2.1,-18.5l0,-1.6c-1.7,-6.8 -3.5,-12.6 -5.4,-17.2c-1.7,-4.6 -4.4,-9.1 -7.8,-13.6Z" style="fill:white;fill-rule:nonzero;"></path>
    <path d="M620.4,169.8c11.3,12.7 17.1,28.4 17.5,47.2c0,13.7 -2.6,26.4 -7.7,38c-5.5,12 -12.9,22.3 -22.3,31.1c-9.4,8.7 -20.6,15.6 -33.6,20.5c-13,5 -27.2,7.6 -42.6,8c-12.7,0 -26.9,-0.8 -42.6,-2.6c-24,-3.1 -46.4,-4.6 -67.3,-4.6c-8.6,0 -16.6,0.3 -24.1,1l1,-81.1c7.5,8.6 15.7,17 24.4,25.4c8.7,8.4 19.1,17.3 31.1,26.7c12,9.4 24.5,17 37.5,22.8c13,5.8 25.3,8.7 37,8.7c17.1,0 31,-4.8 41.6,-14.4c11,-9.9 16.4,-22.6 16.4,-38c-0.3,-13.4 -6.3,-25.3 -18,-35.9c-11,-9.6 -28.4,-18.5 -52.4,-26.7l-45.4,-15.9c-28.4,-9.9 -49,-20.7 -61.6,-32.4c-9.9,-9.2 -15.8,-21.7 -17.5,-37.5c-0.3,-3.1 -0.5,-5.8 -0.5,-8.2c0,-13.4 2.7,-25.8 8.2,-37.5c5.5,-11.6 13.2,-21.7 23.1,-30.3c9.6,-8.6 21.3,-15.4 35.2,-20.5c13.9,-5.1 28.8,-7.9 44.9,-8.2c7.9,0 15.9,0.5 24.1,1.5l2.1,0c34.6,4.8 63.3,5.5 86.3,2.1l-1,57c-14.7,-13.7 -32.5,-26 -53.4,-37c-20.9,-11 -38.2,-16.9 -51.9,-18c-18.8,-1.7 -33.4,2.2 -43.6,11.8c-10.3,8.9 -15.4,20.7 -15.4,35.4c0.3,7.2 2.1,14.1 5.4,20.8c3.2,6.7 7.8,12.2 13.6,16.7c5.5,4.1 13.4,8.6 23.6,13.4c9.9,4.8 20.9,9.2 32.9,13.4l41.6,15.4c16.1,5.8 29.3,12.3 39.5,19.5c5.5,4.2 10.1,8.3 13.9,12.4Z" style="fill:white;fill-rule:nonzero;"></path>
    <path d="M1025.5,259.6l0,-199.2c0,-14.4 0.7,-25.2 2.1,-32.4c1.4,-6.2 3.4,-11.6 6.2,-16.4l-83.8,0c2.7,4.8 4.8,10.3 6.2,16.4c1.4,7.2 2.1,18 2.1,32.4l0,105.1l-64.4,-17.9l-57.3,18.4l0,-105.6c0,-14.4 0.7,-25.2 2.1,-32.4c1.4,-6.2 3.4,-11.6 6.2,-16.4l-83.7,0c2.7,4.8 4.8,10.3 6.2,16.4c1.4,7.2 2.1,18 2.1,32.4l0,199.2c0,14.4 -0.7,25.2 -2.1,32.4c-1.4,6.2 -3.4,11.8 -6.2,16.9l83.7,0c-2.7,-5.1 -4.8,-10.8 -6.2,-16.9c-1.4,-7.2 -2.1,-18 -2.1,-32.4l0,-86.3l57.4,-18.5l64.3,17.9l0,87c0,14.4 -0.7,25.2 -2.1,32.4c-1.4,6.2 -3.4,11.8 -6.2,16.9l83.7,0c-2.7,-5.1 -4.8,-10.8 -6.2,-16.9c-1.3,-7.3 -2,-18.1 -2,-32.5Z" style="fill:white;fill-rule:nonzero;"></path>
  </g>
</svg>